<svg display="block" role="presentation" viewBox="0 0 200 80" xmlns="http://www.w3.org/2000/svg"><g d="M 0 0 L 200 0 L 200 36.293 L 0 36.293 Z M 35.55 36.287 L 46.64 36.287 L 25.772 1.721 C 25.04 0.499 24.327 0 23.32 0 C 22.314 0 21.525 0.532 20.813 1.72 L 0 36.293 L 10.795 36.293 L 23.135 15.483 L 35.55 36.293 Z M 46.554 21.396 L 46.554 8.604 C 46.554 8.509 46.517 8.417 46.449 8.35 C 46.382 8.283 46.29 8.245 46.195 8.246 L 38.614 8.246 L 46.554 21.401 Z M 83.351 27.811 L 80.448 22.945 L 71.284 22.945 L 72.883 20.205 L 78.827 20.205 L 74.51 12.974 L 65.715 27.806 L 61.849 27.806 L 72.987 9.307 C 73.389 8.645 73.894 8.216 74.64 8.216 C 75.384 8.216 75.863 8.64 76.265 9.307 L 87.431 27.806 L 83.351 27.806 Z M 99.227 27.811 C 93.816 27.811 89.818 23.557 89.818 17.949 C 89.818 12.34 93.816 8.487 99.227 8.487 L 109.723 8.487 L 109.723 11.861 L 99.227 11.861 C 95.761 11.861 93.207 14.439 93.207 18.106 C 93.207 21.773 95.735 24.432 99.227 24.432 L 109.723 24.432 L 109.723 27.806 L 99.227 27.806 Z M 133.787 8.487 L 137.094 8.487 L 137.094 19.277 C 137.094 25.255 134.136 28.077 126.62 28.077 C 119.104 28.077 116.172 25.261 116.172 19.277 L 116.172 8.487 L 119.664 8.487 L 119.664 19.277 C 119.664 23.156 121.393 24.751 126.723 24.751 C 132.052 24.751 133.782 23.156 133.782 19.277 L 133.782 8.487 Z M 167.201 27.811 L 163.498 14.227 L 158.01 26.797 C 157.635 27.621 157.102 28.071 156.281 28.071 C 155.459 28.071 154.894 27.621 154.551 26.797 L 149.091 14.227 L 145.388 27.811 L 142.059 27.811 L 147.041 9.633 C 147.28 8.705 147.813 8.249 148.722 8.249 C 149.44 8.249 150.108 8.65 150.429 9.393 L 156.4 23.053 L 162.366 9.393 C 162.687 8.65 163.274 8.249 163.992 8.249 C 164.819 8.249 165.352 8.699 165.619 9.632 L 170.573 27.811 Z M 195.916 27.811 L 193.012 22.945 L 183.849 22.945 L 185.447 20.205 L 191.391 20.205 L 187.073 12.974 L 178.279 27.806 L 174.418 27.806 L 185.555 9.307 C 185.958 8.645 186.464 8.216 187.209 8.216 C 187.954 8.216 188.433 8.64 188.835 9.307 L 200 27.806 L 195.922 27.806 Z" fill="transparent" height="36.2930678036373px" id="gvAk868s_" transform="translate(0 21.5)" width="199.99999332029302px"><path d="M 0 0 L 200 0 L 200 36.293 L 0 36.293 Z" fill="transparent" height="36.2930678036373px" id="U4gIsTUpe" width="199.9999917158101px"/><path d="M 35.55 36.287 L 46.64 36.287 L 25.772 1.721 C 25.04 0.499 24.327 0 23.32 0 C 22.314 0 21.525 0.532 20.813 1.72 L 0 36.293 L 10.795 36.293 L 23.135 15.483 L 35.55 36.293 Z M 46.554 21.396 L 46.554 8.604 C 46.554 8.509 46.517 8.417 46.449 8.35 C 46.382 8.283 46.29 8.245 46.195 8.246 L 38.614 8.246 L 46.554 21.401 Z M 83.351 27.811 L 80.448 22.945 L 71.284 22.945 L 72.883 20.205 L 78.827 20.205 L 74.51 12.974 L 65.715 27.806 L 61.849 27.806 L 72.987 9.307 C 73.389 8.645 73.894 8.216 74.64 8.216 C 75.384 8.216 75.863 8.64 76.265 9.307 L 87.431 27.806 L 83.351 27.806 Z M 99.227 27.811 C 93.816 27.811 89.818 23.557 89.818 17.949 C 89.818 12.34 93.816 8.487 99.227 8.487 L 109.723 8.487 L 109.723 11.861 L 99.227 11.861 C 95.761 11.861 93.207 14.439 93.207 18.106 C 93.207 21.773 95.735 24.432 99.227 24.432 L 109.723 24.432 L 109.723 27.806 L 99.227 27.806 Z M 133.787 8.487 L 137.094 8.487 L 137.094 19.277 C 137.094 25.255 134.136 28.077 126.62 28.077 C 119.104 28.077 116.172 25.261 116.172 19.277 L 116.172 8.487 L 119.664 8.487 L 119.664 19.277 C 119.664 23.156 121.393 24.751 126.723 24.751 C 132.052 24.751 133.782 23.156 133.782 19.277 L 133.782 8.487 Z M 167.201 27.811 L 163.498 14.227 L 158.01 26.797 C 157.635 27.621 157.102 28.071 156.281 28.071 C 155.459 28.071 154.894 27.621 154.551 26.797 L 149.091 14.227 L 145.388 27.811 L 142.059 27.811 L 147.041 9.633 C 147.28 8.705 147.813 8.249 148.722 8.249 C 149.44 8.249 150.108 8.65 150.429 9.393 L 156.4 23.053 L 162.366 9.393 C 162.687 8.65 163.274 8.249 163.992 8.249 C 164.819 8.249 165.352 8.699 165.619 9.632 L 170.573 27.811 Z M 195.916 27.811 L 193.012 22.945 L 183.849 22.945 L 185.447 20.205 L 191.391 20.205 L 187.073 12.974 L 178.279 27.806 L 174.418 27.806 L 185.555 9.307 C 185.958 8.645 186.464 8.216 187.209 8.216 C 187.954 8.216 188.433 8.64 188.835 9.307 L 200 27.806 L 195.922 27.806 Z" fill="var(--11h0dq0, var(--token-3c516c4d-e75f-4682-bff5-df0c0af0f129, rgb(0, 0, 0)))" height="36.2930678036373px" id="ZI7_pMRgg" width="199.99999332029302px"/></g></svg>