<svg display="block" role="presentation" viewBox="0 0 200 80" xmlns="http://www.w3.org/2000/svg"><g d="M 0 0 L 200 0 L 200 24.546 L 0 24.546 Z M 151.051 24.294 C 149.139 24.294 147.341 24.282 145.544 24.301 C 145.012 24.306 144.967 23.947 144.88 23.585 C 144.077 20.235 143.275 16.886 142.471 13.538 C 142.313 12.882 142.138 12.23 141.817 11.583 C 141.417 13.237 141.015 14.892 140.617 16.546 C 140.044 18.924 139.457 21.301 138.912 23.686 C 138.795 24.199 138.531 24.306 138.071 24.301 C 136.499 24.285 134.925 24.273 133.353 24.306 C 132.845 24.316 132.636 24.112 132.538 23.655 C 131.852 20.398 131.155 17.141 130.465 13.884 C 129.587 9.735 128.708 5.586 127.833 1.436 C 127.769 1.134 127.728 0.827 127.668 0.474 C 127.915 0.432 128.106 0.374 128.295 0.374 C 130.011 0.367 131.727 0.378 133.441 0.364 C 133.94 0.36 134.191 0.491 134.294 1.055 C 134.884 4.333 135.524 7.602 136.152 10.873 C 136.207 11.161 136.286 11.444 136.506 11.736 C 136.839 10.33 137.17 8.927 137.503 7.521 C 138.002 5.416 138.525 3.317 138.985 1.203 C 139.119 0.589 139.349 0.333 140.003 0.355 C 141.374 0.4 142.749 0.39 144.12 0.359 C 144.705 0.347 144.966 0.53 145.103 1.136 C 145.867 4.525 146.682 7.902 147.481 11.283 C 147.519 11.439 147.584 11.588 147.768 11.739 C 148.176 9.632 148.586 7.525 148.995 5.417 C 149.281 3.937 149.553 2.45 149.87 0.976 C 149.918 0.755 150.175 0.414 150.342 0.41 C 152.218 0.369 154.097 0.384 156.144 0.384 C 154.433 8.42 152.751 16.312 151.052 24.294 Z M 94.654 12.264 L 94.654 23.197 C 94.654 24.119 94.647 24.122 93.698 24.124 C 92.241 24.127 90.782 24.105 89.326 24.134 C 88.773 24.146 88.584 23.971 88.586 23.405 C 88.601 15.974 88.603 8.542 88.586 1.11 C 88.586 0.475 88.847 0.352 89.403 0.36 C 91.117 0.384 92.833 0.391 94.547 0.357 C 95.15 0.345 95.467 0.592 95.759 1.091 C 97.585 4.216 99.44 7.324 101.286 10.437 C 101.37 10.578 101.48 10.701 101.717 11.022 C 101.741 10.517 101.767 10.222 101.767 9.927 C 101.77 7.068 101.767 4.211 101.77 1.352 C 101.77 0.376 101.777 0.371 102.777 0.369 C 104.207 0.366 105.636 0.388 107.064 0.359 C 107.639 0.347 107.869 0.515 107.869 1.129 C 107.852 8.561 107.855 15.992 107.865 23.424 C 107.865 23.926 107.726 24.139 107.189 24.131 C 105.647 24.105 104.102 24.089 102.559 24.137 C 101.959 24.156 101.763 23.774 101.535 23.393 C 99.531 20.041 97.537 16.685 95.538 13.33 C 95.313 12.952 95.071 12.582 94.837 12.209 C 94.777 12.227 94.716 12.244 94.655 12.263 L 94.654 12.263 Z M 41.097 12.472 C 40.882 14.08 40.788 15.89 40.376 17.627 C 39.441 21.577 36.779 23.89 32.74 24.256 C 31.079 24.407 29.363 24.357 27.71 24.12 C 24.137 23.607 21.785 21.514 20.848 18.028 C 19.837 14.267 19.844 10.451 20.79 6.67 C 21.665 3.171 23.923 1.057 27.475 0.357 C 29.751 -0.093 32.026 -0.081 34.274 0.487 C 37.933 1.409 39.889 3.926 40.548 7.513 C 40.836 9.078 40.906 10.682 41.097 12.474 Z M 26.578 12.129 C 26.681 13.459 26.725 14.512 26.854 15.556 C 26.979 16.57 27.331 17.505 28.206 18.133 C 30.422 19.722 33.667 18.54 34.202 15.895 C 34.672 13.584 34.652 11.24 34.176 8.928 C 33.854 7.362 32.882 6.459 31.509 6.301 C 31.086 6.253 30.655 6.277 30.226 6.279 C 28.524 6.289 27.427 7.032 27.038 8.68 C 26.751 9.888 26.699 11.151 26.576 12.131 Z M 6.418 8.784 L 10.797 8.784 C 12.194 8.784 12.892 8.081 12.892 6.674 C 12.892 4.843 12.916 3.012 12.88 1.182 C 12.867 0.532 13.097 0.343 13.723 0.357 C 15.324 0.393 16.927 0.386 18.528 0.36 C 19.103 0.352 19.338 0.518 19.336 1.134 C 19.321 8.542 19.321 15.949 19.336 23.357 C 19.336 23.959 19.14 24.146 18.548 24.136 C 16.918 24.103 15.288 24.103 13.658 24.136 C 13.054 24.148 12.875 23.942 12.88 23.35 C 12.906 20.776 12.891 18.202 12.889 15.628 C 12.889 15.485 12.87 15.345 12.853 15.116 L 6.459 15.116 L 6.459 24.004 C 6.178 24.055 5.989 24.117 5.802 24.119 C 4.115 24.127 2.426 24.107 0.74 24.134 C 0.187 24.143 0 23.962 0 23.398 C 0.015 15.99 0.014 8.582 0 1.175 C 0 0.607 0.144 0.348 0.767 0.36 C 2.397 0.393 4.027 0.393 5.658 0.36 C 6.272 0.348 6.433 0.582 6.426 1.162 C 6.401 3.334 6.416 5.508 6.416 7.683 L 6.416 8.786 L 6.418 8.786 Z M 182.987 24.074 L 176.362 24.074 C 175.506 22.001 174.637 19.902 173.772 17.802 C 173.376 16.841 172.527 16.421 171.581 16.812 C 171.397 16.887 171.269 17.309 171.265 17.574 C 171.238 19.374 171.25 21.176 171.25 22.976 L 171.25 24.021 C 171.028 24.067 170.898 24.117 170.766 24.117 C 169.052 24.124 167.336 24.108 165.621 24.132 C 165.1 24.139 164.899 23.962 164.931 23.441 C 164.964 22.928 164.938 22.413 164.938 21.898 L 164.938 1.404 C 164.938 0.376 164.942 0.372 165.975 0.371 C 168.92 0.371 171.864 0.341 174.807 0.386 C 175.885 0.403 176.981 0.494 178.03 0.731 C 180.642 1.318 182.28 2.94 182.857 5.589 C 183.348 7.844 183.283 10.066 182.502 12.249 C 182.035 13.551 181.249 14.632 180.07 15.369 C 179.555 15.69 179.559 15.983 179.778 16.479 C 180.801 18.797 181.79 21.131 182.785 23.46 C 182.86 23.635 182.905 23.823 182.986 24.074 Z M 171.228 5.946 C 171.228 7.717 171.212 9.366 171.252 11.013 C 171.255 11.182 171.588 11.482 171.77 11.484 C 172.937 11.501 174.105 11.48 175.27 11.413 C 176.12 11.363 176.676 10.821 176.767 10.016 C 176.868 9.124 176.863 8.201 176.745 7.312 C 176.636 6.505 176.036 5.991 175.202 5.96 C 173.923 5.912 172.643 5.948 171.229 5.948 L 171.228 5.948 Z M 128.089 9.769 C 128.02 12.954 128.31 16.072 127.612 19.147 C 126.985 21.903 125.257 23.516 122.515 24.053 C 120.193 24.508 117.853 24.597 115.533 24.081 C 112.303 23.362 110.343 21.258 109.578 18.118 C 108.674 14.406 108.66 10.653 109.478 6.907 C 110.297 3.156 112.631 0.999 116.38 0.35 C 119.598 -0.206 122.754 -0.048 125.789 1.277 C 126.103 1.414 126.405 1.577 126.706 1.742 C 126.826 1.809 126.927 1.912 127.114 2.059 C 126.002 3.798 124.905 5.514 123.78 7.272 C 123.304 7.085 122.86 6.921 122.422 6.737 C 121.113 6.188 119.738 6.214 118.371 6.315 C 117.176 6.402 116.351 7.08 115.939 8.192 C 115.723 8.776 115.545 9.397 115.495 10.015 C 115.32 12.208 115.2 14.415 115.73 16.578 C 116.276 18.804 118.941 19.906 120.902 18.72 C 121.291 18.485 121.691 18.07 121.829 17.653 C 122.089 16.863 122.165 16.012 122.345 15.032 C 121.068 15.032 119.991 14.998 118.917 15.046 C 118.27 15.075 118.077 14.856 118.096 14.219 C 118.139 12.764 118.11 11.307 118.11 9.771 L 128.089 9.771 Z M 55.024 8.637 C 55.024 6.207 55.021 3.777 55.024 1.347 C 55.026 0.381 55.034 0.374 55.964 0.371 C 57.509 0.366 59.052 0.39 60.596 0.36 C 61.157 0.35 61.344 0.542 61.337 1.1 C 61.276 6.414 61.253 11.731 61.166 17.045 C 61.152 17.886 60.948 18.746 60.697 19.554 C 59.978 21.872 58.351 23.307 56.049 23.938 C 53.214 24.716 50.336 24.748 47.489 24.028 C 44.296 23.219 42.483 21.093 42.089 17.814 C 41.975 16.88 41.912 15.935 41.907 14.996 C 41.888 10.451 41.898 5.905 41.9 1.359 C 41.9 0.376 41.905 0.372 42.894 0.371 C 44.323 0.367 45.752 0.371 47.182 0.371 C 47.939 0.371 48.32 0.74 48.321 1.477 C 48.321 5.881 48.316 10.282 48.33 14.686 C 48.332 15.339 48.388 16 48.488 16.647 C 48.665 17.802 49.262 18.428 50.43 18.612 C 51.127 18.722 51.86 18.773 52.556 18.689 C 54.183 18.494 54.904 17.738 54.943 16.096 C 55.002 13.611 54.959 11.123 54.959 8.637 Z M 199.985 6.15 C 199.544 6.171 199.207 6.198 198.869 6.2 C 196.353 6.203 193.836 6.222 191.32 6.19 C 190.625 6.181 190.378 6.375 190.387 7.106 C 190.413 9.232 190.382 9.234 192.491 9.234 C 194.6 9.234 196.609 9.26 198.667 9.22 C 199.391 9.206 199.61 9.471 199.588 10.167 C 199.547 11.424 199.581 12.683 199.574 13.941 C 199.569 14.904 199.564 14.91 198.629 14.912 C 196.199 14.916 193.767 14.912 191.338 14.916 C 190.409 14.916 190.407 14.922 190.404 15.875 C 190.402 16.673 190.404 17.471 190.404 18.373 C 190.754 18.392 191.054 18.421 191.355 18.421 C 193.956 18.425 196.559 18.442 199.161 18.411 C 199.789 18.404 200.015 18.571 199.998 19.226 C 199.955 20.819 199.985 22.415 199.985 24.071 C 199.616 24.093 199.339 24.125 199.063 24.125 C 194.402 24.129 189.742 24.129 185.079 24.125 C 184.158 24.125 184.154 24.119 184.154 23.17 L 184.154 1.38 C 184.154 0.379 184.159 0.374 185.132 0.372 L 199.03 0.372 C 199.978 0.372 199.983 0.379 199.985 1.308 C 199.988 2.9 199.985 4.494 199.985 6.15 Z M 79.071 1.781 C 78.18 3.511 77.286 5.249 76.363 7.043 C 74.491 6.178 72.622 5.864 70.684 5.96 C 70.317 5.979 69.952 6.051 69.584 6.095 C 68.934 6.174 68.531 6.526 68.457 7.183 C 68.378 7.885 68.651 8.434 69.334 8.674 C 70.056 8.93 70.805 9.119 71.541 9.34 C 72.879 9.742 74.235 10.088 75.549 10.559 C 78.243 11.523 79.766 13.428 79.838 16.336 C 79.862 17.327 79.814 18.348 79.603 19.312 C 79.041 21.867 77.301 23.362 74.844 23.94 C 70.763 24.901 66.736 24.579 62.816 23.086 C 62.218 22.857 61.67 22.492 61.003 22.14 C 62.118 20.448 63.163 18.862 64.232 17.243 C 66.564 18.691 69.059 19.092 71.676 18.955 C 73.065 18.881 73.698 18.288 73.627 17.122 C 73.579 16.319 73.116 15.866 72.394 15.666 C 71.16 15.321 69.909 15.037 68.678 14.679 C 67.803 14.423 66.925 14.15 66.096 13.774 C 63.167 12.446 62.132 10.418 62.197 7.348 C 62.281 3.365 64.303 0.973 68.217 0.302 C 71.647 -0.287 75.048 -0.045 78.31 1.308 C 78.494 1.383 78.676 1.465 78.851 1.56 C 78.921 1.598 78.969 1.678 79.071 1.785 Z M 157.108 24.122 C 157.089 23.722 157.064 23.443 157.064 23.163 C 157.062 15.907 157.062 8.652 157.064 1.399 C 157.064 0.376 157.067 0.372 158.097 0.372 C 159.61 0.372 161.125 0.395 162.637 0.362 C 163.253 0.348 163.493 0.523 163.492 1.181 C 163.473 8.578 163.48 15.976 163.48 23.374 C 163.48 23.75 163.526 24.134 162.946 24.129 C 161.036 24.115 159.126 24.124 157.108 24.124 Z M 80.749 24.122 C 80.728 23.729 80.701 23.449 80.701 23.171 C 80.699 15.914 80.699 8.657 80.701 1.399 C 80.701 0.374 80.704 0.372 81.734 0.371 C 83.191 0.371 84.649 0.39 86.105 0.36 C 86.674 0.348 86.911 0.505 86.909 1.124 C 86.892 8.553 86.897 15.981 86.901 23.41 C 86.901 23.81 86.899 24.136 86.336 24.131 C 84.51 24.11 82.685 24.122 80.749 24.122 Z" fill="transparent" height="24.54589914971385px" id="pgBsIch_b" transform="translate(0 28)" width="200px"><path d="M 0 0 L 200 0 L 200 24.546 L 0 24.546 Z" fill="transparent" height="24.54589914971385px" id="UAMiVXWLM" width="200px"/><path d="M 151.051 24.293 C 149.139 24.293 147.341 24.281 145.544 24.3 C 145.012 24.305 144.967 23.946 144.88 23.584 C 144.077 20.235 143.275 16.885 142.471 13.537 C 142.313 12.882 142.138 12.229 141.817 11.582 C 141.417 13.237 141.015 14.891 140.617 16.545 C 140.044 18.924 139.457 21.3 138.912 23.686 C 138.795 24.199 138.531 24.305 138.071 24.3 C 136.499 24.284 134.925 24.272 133.353 24.305 C 132.845 24.315 132.636 24.111 132.538 23.655 C 131.852 20.398 131.155 17.141 130.465 13.884 C 129.587 9.734 128.708 5.585 127.833 1.436 C 127.769 1.134 127.728 0.826 127.668 0.473 C 127.915 0.432 128.106 0.373 128.295 0.373 C 130.011 0.367 131.727 0.377 133.441 0.363 C 133.94 0.36 134.191 0.49 134.294 1.055 C 134.884 4.332 135.524 7.601 136.152 10.872 C 136.207 11.16 136.286 11.443 136.506 11.735 C 136.839 10.33 137.17 8.926 137.503 7.521 C 138.002 5.415 138.525 3.316 138.985 1.202 C 139.119 0.588 139.349 0.332 140.003 0.355 C 141.374 0.399 142.749 0.389 144.12 0.358 C 144.705 0.346 144.966 0.53 145.103 1.135 C 145.867 4.525 146.682 7.902 147.481 11.282 C 147.519 11.438 147.584 11.588 147.768 11.739 C 148.176 9.631 148.586 7.524 148.995 5.417 C 149.281 3.936 149.553 2.45 149.87 0.976 C 149.918 0.754 150.175 0.413 150.342 0.41 C 152.218 0.368 154.097 0.384 156.144 0.384 C 154.433 8.42 152.751 16.312 151.052 24.293 Z M 94.654 12.264 L 94.654 23.196 C 94.654 24.118 94.647 24.121 93.698 24.123 C 92.241 24.127 90.782 24.104 89.326 24.133 C 88.773 24.145 88.584 23.97 88.586 23.404 C 88.601 15.974 88.603 8.542 88.586 1.11 C 88.586 0.475 88.847 0.351 89.403 0.36 C 91.117 0.384 92.833 0.391 94.547 0.356 C 95.15 0.344 95.467 0.591 95.759 1.091 C 97.585 4.216 99.44 7.323 101.286 10.436 C 101.37 10.577 101.48 10.7 101.717 11.021 C 101.741 10.517 101.767 10.222 101.767 9.927 C 101.77 7.068 101.767 4.21 101.77 1.352 C 101.77 0.375 101.777 0.37 102.777 0.368 C 104.207 0.365 105.636 0.387 107.064 0.358 C 107.639 0.346 107.869 0.514 107.869 1.129 C 107.852 8.561 107.855 15.991 107.865 23.423 C 107.865 23.926 107.726 24.139 107.189 24.13 C 105.647 24.104 104.102 24.089 102.559 24.137 C 101.959 24.156 101.763 23.773 101.535 23.392 C 99.531 20.041 97.537 16.684 95.538 13.329 C 95.313 12.952 95.071 12.581 94.837 12.209 C 94.777 12.226 94.716 12.243 94.655 12.262 L 94.654 12.262 Z M 41.097 12.471 C 40.882 14.079 40.788 15.89 40.376 17.626 C 39.441 21.577 36.779 23.89 32.74 24.255 C 31.079 24.406 29.363 24.357 27.71 24.12 C 24.137 23.607 21.785 21.513 20.848 18.028 C 19.837 14.266 19.844 10.45 20.79 6.67 C 21.665 3.171 23.923 1.056 27.475 0.356 C 29.751 -0.093 32.026 -0.081 34.274 0.487 C 37.933 1.408 39.889 3.926 40.548 7.512 C 40.836 9.077 40.906 10.682 41.097 12.473 Z M 26.578 12.128 C 26.681 13.458 26.725 14.512 26.854 15.555 C 26.979 16.569 27.331 17.504 28.206 18.133 C 30.422 19.722 33.667 18.539 34.202 15.895 C 34.672 13.583 34.652 11.239 34.176 8.928 C 33.854 7.361 32.882 6.458 31.509 6.301 C 31.086 6.253 30.655 6.277 30.226 6.278 C 28.524 6.289 27.427 7.032 27.038 8.679 C 26.751 9.887 26.699 11.15 26.576 12.13 Z M 6.418 8.784 L 10.797 8.784 C 12.194 8.784 12.892 8.08 12.892 6.673 C 12.892 4.842 12.916 3.011 12.88 1.182 C 12.867 0.531 13.097 0.343 13.723 0.356 C 15.324 0.392 16.927 0.385 18.528 0.36 C 19.103 0.351 19.338 0.518 19.336 1.134 C 19.321 8.542 19.321 15.948 19.336 23.356 C 19.336 23.958 19.14 24.145 18.548 24.135 C 16.918 24.103 15.288 24.103 13.658 24.135 C 13.054 24.147 12.875 23.941 12.88 23.349 C 12.906 20.775 12.891 18.201 12.889 15.627 C 12.889 15.485 12.87 15.344 12.853 15.116 L 6.459 15.116 L 6.459 24.003 C 6.178 24.054 5.989 24.116 5.802 24.118 C 4.115 24.127 2.426 24.106 0.74 24.133 C 0.187 24.142 0 23.962 0 23.397 C 0.015 15.989 0.014 8.581 0 1.175 C 0 0.607 0.144 0.348 0.767 0.36 C 2.397 0.392 4.027 0.392 5.658 0.36 C 6.272 0.348 6.433 0.581 6.426 1.161 C 6.401 3.334 6.416 5.508 6.416 7.682 L 6.416 8.785 L 6.418 8.785 Z M 182.987 24.073 L 176.362 24.073 C 175.506 22 174.637 19.902 173.772 17.801 C 173.376 16.84 172.527 16.42 171.581 16.811 C 171.397 16.887 171.269 17.309 171.265 17.573 C 171.238 19.373 171.25 21.175 171.25 22.975 L 171.25 24.02 C 171.028 24.067 170.898 24.116 170.766 24.116 C 169.052 24.123 167.336 24.108 165.621 24.132 C 165.1 24.139 164.899 23.962 164.931 23.44 C 164.964 22.927 164.938 22.412 164.938 21.897 L 164.938 1.403 C 164.938 0.375 164.942 0.372 165.975 0.37 C 168.92 0.37 171.864 0.341 174.807 0.385 C 175.885 0.403 176.981 0.494 178.03 0.73 C 180.642 1.317 182.28 2.939 182.857 5.588 C 183.348 7.843 183.283 10.066 182.502 12.248 C 182.035 13.551 181.249 14.632 180.07 15.368 C 179.555 15.689 179.559 15.982 179.778 16.478 C 180.801 18.797 181.79 21.13 182.785 23.459 C 182.86 23.634 182.905 23.823 182.986 24.073 Z M 171.228 5.945 C 171.228 7.716 171.212 9.365 171.252 11.013 C 171.255 11.181 171.588 11.481 171.77 11.483 C 172.937 11.5 174.105 11.48 175.27 11.413 C 176.12 11.363 176.676 10.821 176.767 10.016 C 176.868 9.123 176.863 8.2 176.745 7.311 C 176.636 6.505 176.036 5.99 175.202 5.959 C 173.923 5.911 172.643 5.947 171.229 5.947 L 171.228 5.947 Z M 128.089 9.769 C 128.02 12.954 128.31 16.072 127.612 19.147 C 126.985 21.903 125.257 23.516 122.515 24.053 C 120.193 24.508 117.853 24.597 115.533 24.08 C 112.303 23.361 110.343 21.257 109.578 18.117 C 108.674 14.405 108.66 10.652 109.478 6.906 C 110.297 3.155 112.631 0.998 116.38 0.349 C 119.598 -0.207 122.754 -0.049 125.789 1.276 C 126.103 1.413 126.405 1.576 126.706 1.741 C 126.826 1.808 126.927 1.911 127.114 2.059 C 126.002 3.797 124.905 5.513 123.78 7.272 C 123.304 7.085 122.86 6.92 122.422 6.736 C 121.113 6.187 119.738 6.213 118.371 6.314 C 117.176 6.402 116.351 7.08 115.939 8.192 C 115.723 8.775 115.545 9.396 115.495 10.014 C 115.32 12.207 115.2 14.414 115.73 16.578 C 116.276 18.803 118.941 19.905 120.902 18.719 C 121.291 18.484 121.691 18.069 121.829 17.652 C 122.089 16.863 122.165 16.012 122.345 15.032 C 121.068 15.032 119.991 14.997 118.917 15.045 C 118.27 15.075 118.077 14.855 118.096 14.218 C 118.139 12.763 118.11 11.306 118.11 9.77 L 128.089 9.77 Z M 55.024 8.636 C 55.024 6.206 55.021 3.776 55.024 1.346 C 55.026 0.38 55.034 0.373 55.964 0.37 C 57.509 0.365 59.052 0.389 60.596 0.36 C 61.157 0.349 61.344 0.542 61.337 1.099 C 61.276 6.414 61.253 11.73 61.166 17.045 C 61.152 17.885 60.948 18.745 60.697 19.553 C 59.978 21.872 58.351 23.306 56.049 23.938 C 53.214 24.715 50.336 24.748 47.489 24.027 C 44.296 23.219 42.483 21.093 42.089 17.813 C 41.975 16.88 41.912 15.934 41.907 14.996 C 41.888 10.45 41.898 5.904 41.9 1.358 C 41.9 0.375 41.905 0.372 42.894 0.37 C 44.323 0.367 45.752 0.37 47.182 0.37 C 47.939 0.37 48.32 0.739 48.321 1.477 C 48.321 5.88 48.316 10.282 48.33 14.685 C 48.332 15.339 48.388 16 48.488 16.646 C 48.665 17.801 49.262 18.428 50.43 18.611 C 51.127 18.721 51.86 18.773 52.556 18.689 C 54.183 18.493 54.904 17.738 54.943 16.096 C 55.002 13.611 54.959 11.123 54.959 8.636 Z M 199.985 6.15 C 199.544 6.17 199.207 6.198 198.869 6.199 C 196.353 6.203 193.836 6.222 191.32 6.189 C 190.625 6.18 190.378 6.374 190.387 7.105 C 190.413 9.232 190.382 9.233 192.491 9.233 C 194.6 9.233 196.609 9.259 198.667 9.22 C 199.391 9.206 199.61 9.47 199.588 10.167 C 199.547 11.423 199.581 12.682 199.574 13.94 C 199.569 14.903 199.564 14.91 198.629 14.912 C 196.199 14.915 193.767 14.912 191.338 14.915 C 190.409 14.915 190.407 14.922 190.404 15.874 C 190.402 16.672 190.404 17.47 190.404 18.373 C 190.754 18.392 191.054 18.421 191.355 18.421 C 193.956 18.424 196.559 18.441 199.161 18.411 C 199.789 18.404 200.015 18.57 199.998 19.226 C 199.955 20.818 199.985 22.414 199.985 24.07 C 199.616 24.092 199.339 24.125 199.063 24.125 C 194.402 24.128 189.742 24.128 185.079 24.125 C 184.158 24.125 184.154 24.118 184.154 23.169 L 184.154 1.379 C 184.154 0.379 184.159 0.373 185.132 0.372 L 199.03 0.372 C 199.978 0.372 199.983 0.379 199.985 1.307 C 199.988 2.899 199.985 4.494 199.985 6.15 Z M 79.071 1.781 C 78.18 3.51 77.286 5.249 76.363 7.042 C 74.491 6.177 72.622 5.863 70.684 5.959 C 70.317 5.978 69.952 6.05 69.584 6.095 C 68.934 6.174 68.531 6.525 68.457 7.183 C 68.378 7.884 68.651 8.434 69.334 8.674 C 70.056 8.93 70.805 9.118 71.541 9.34 C 72.879 9.741 74.235 10.088 75.549 10.558 C 78.243 11.522 79.766 13.427 79.838 16.336 C 79.862 17.326 79.814 18.347 79.603 19.311 C 79.041 21.867 77.301 23.361 74.844 23.94 C 70.763 24.9 66.736 24.578 62.816 23.085 C 62.218 22.857 61.67 22.491 61.003 22.139 C 62.118 20.447 63.163 18.862 64.232 17.242 C 66.564 18.69 69.059 19.092 71.676 18.954 C 73.065 18.881 73.698 18.287 73.627 17.122 C 73.579 16.319 73.116 15.866 72.394 15.665 C 71.16 15.32 69.909 15.037 68.678 14.678 C 67.803 14.422 66.925 14.15 66.096 13.774 C 63.167 12.446 62.132 10.417 62.197 7.347 C 62.281 3.364 64.303 0.972 68.217 0.301 C 71.647 -0.287 75.048 -0.045 78.31 1.307 C 78.494 1.382 78.676 1.465 78.851 1.559 C 78.921 1.597 78.969 1.678 79.071 1.784 Z M 157.108 24.121 C 157.089 23.722 157.064 23.442 157.064 23.162 C 157.062 15.907 157.062 8.652 157.064 1.398 C 157.064 0.375 157.067 0.372 158.097 0.372 C 159.61 0.372 161.125 0.394 162.637 0.361 C 163.253 0.348 163.493 0.523 163.492 1.18 C 163.473 8.578 163.48 15.975 163.48 23.373 C 163.48 23.749 163.526 24.133 162.946 24.128 C 161.036 24.115 159.126 24.123 157.108 24.123 Z M 80.749 24.121 C 80.728 23.728 80.701 23.449 80.701 23.171 C 80.699 15.914 80.699 8.657 80.701 1.398 C 80.701 0.373 80.704 0.372 81.734 0.37 C 83.191 0.37 84.649 0.389 86.105 0.36 C 86.674 0.348 86.911 0.504 86.909 1.123 C 86.892 8.552 86.897 15.981 86.901 23.409 C 86.901 23.809 86.899 24.135 86.336 24.13 C 84.51 24.109 82.685 24.121 80.749 24.121 Z" fill="var(--11h0dq0, var(--token-3c516c4d-e75f-4682-bff5-df0c0af0f129, rgb(0, 0, 0)))" height="24.545131778137847px" id="Lwf5PvL_Q" transform="translate(0 0.001)" width="199.99919148898564px"/></g></svg>