<svg display="block" role="presentation" viewBox="0 0 200 80" xmlns="http://www.w3.org/2000/svg"><g d="M 28.643 5.441 L 28.061 6.658 L 32.809 6.658 L 23.089 26.476 L 14.233 6.658 L 18.815 6.658 L 18.267 5.441 L 0 5.441 L 0.589 6.658 L 2.221 6.658 L 15.157 34.533 L 17.016 34.533 L 4.078 6.658 L 5.907 6.658 L 18.841 34.533 L 21.115 34.533 L 34.61 6.658 L 36.441 6.658 L 22.944 34.533 L 27.399 34.533 L 40.763 6.658 L 45.932 6.658 L 46.516 5.441 Z M 5.391 17.591 L 5.391 33.32 L 0.589 33.32 L 0.019 34.539 L 10.943 34.539 L 10.38 33.32 L 6.826 33.32 L 6.826 20.69 Z M 37.839 17.047 L 33.645 25.694 L 33.645 33.263 L 30.013 33.263 L 29.435 34.486 L 46.495 34.486 L 45.934 33.263 L 41.142 33.263 L 41.142 10.233 Z M 46.518 38.811 L 0 38.811 L 0 40 L 46.518 40 Z M 46.518 0 L 0 0 L 0 1.189 L 46.518 1.189 Z M 68.372 6.803 L 69.454 6.892 C 70.255 6.967 70.649 7.094 70.822 7.352 C 71.012 7.636 70.954 8.115 70.621 8.946 C 69.971 10.558 67.636 15.745 65.933 19.535 L 65.236 21.089 L 65.084 20.759 C 62.658 15.568 60.163 10.195 59.301 8.143 C 59.121 7.722 59.085 7.47 59.199 7.307 C 59.323 7.106 59.665 6.997 60.331 6.922 L 61.414 6.807 L 61.478 6.807 L 61.478 6.025 L 53.063 6.025 L 53.063 6.811 L 53.131 6.811 C 55.169 6.983 55.617 7.198 56.682 9.514 L 57.358 10.967 C 58.992 14.504 61.732 20.424 63.742 24.862 L 63.76 24.904 L 64.881 24.904 L 64.896 24.862 C 67.443 19.086 71.655 10.632 72.125 9.687 C 73.361 7.225 73.64 7.011 75.921 6.811 L 75.988 6.811 L 75.988 6.025 L 68.372 6.025 Z M 93.814 20.061 C 93.288 21.422 92.732 22.355 92.193 22.84 C 91.411 23.554 89.611 23.647 87.948 23.647 C 86.379 23.647 85.135 23.647 84.505 23.314 C 83.918 23.004 83.691 22.226 83.691 20.543 L 83.691 15.553 L 87.059 15.553 C 88.494 15.553 89.247 15.606 89.678 15.91 C 90.108 16.214 90.191 16.734 90.366 17.81 L 90.379 17.867 L 91.355 17.867 L 91.355 12.073 L 90.37 12.073 L 90.357 12.132 C 90.022 14.193 89.996 14.362 87.05 14.362 L 83.691 14.362 L 83.691 7.914 C 83.691 7.126 83.724 7.094 84.644 7.094 L 87.241 7.094 C 89.301 7.094 90.412 7.295 90.937 7.763 C 91.463 8.23 91.82 9.006 92.145 10.36 L 92.158 10.417 L 93.145 10.314 L 93.145 10.249 C 92.978 8.686 92.803 6.606 92.771 6.082 L 92.771 6.021 L 77.679 6.021 L 77.679 6.803 L 77.746 6.803 C 80.388 6.971 80.678 7.092 80.678 10.229 L 80.678 20.517 C 80.678 23.54 80.462 23.765 77.408 23.943 L 77.339 23.943 L 77.339 24.727 L 93.595 24.727 L 93.608 24.682 C 93.885 23.904 94.641 20.974 94.805 20.188 L 94.82 20.114 L 93.831 20.019 Z M 148.061 13.834 L 147.808 13.738 C 144.984 12.682 143.455 11.723 143.455 9.768 C 143.455 8.224 144.57 6.666 147.063 6.666 C 149.979 6.666 150.983 8.416 151.635 10.306 L 151.652 10.356 L 152.637 10.257 L 152.637 10.191 C 152.535 9.564 152.442 9.014 152.366 8.516 C 152.221 7.65 152.109 6.965 152.022 6.334 L 152.022 6.281 L 151.968 6.281 C 151.687 6.237 151.342 6.144 151.009 6.058 C 150.899 6.028 150.793 5.993 150.684 5.967 C 149.753 5.729 148.793 5.604 147.827 5.594 C 143.65 5.594 140.731 7.783 140.731 10.918 C 140.731 14.054 144.488 15.461 146.092 16.055 C 146.256 16.114 146.401 16.17 146.503 16.21 C 148.884 17.178 150.862 18.167 150.862 20.465 C 150.862 22.663 149.232 24.092 146.704 24.092 C 142.979 24.092 141.293 20.666 140.878 19.618 L 140.85 19.566 L 139.867 19.701 L 139.882 19.769 C 139.98 20.215 140.079 20.7 140.183 21.18 C 140.438 22.403 140.676 23.558 140.878 24.092 L 140.878 24.12 L 141.094 24.201 C 141.499 24.346 142.051 24.539 142.78 24.733 C 143.841 25.015 144.938 25.162 146.042 25.168 C 150.397 25.168 153.684 22.667 153.684 19.356 C 153.684 15.894 150.303 14.659 148.057 13.845 M 114.297 22.901 C 113.261 21.923 112.305 20.874 111.438 19.763 C 110.501 18.608 109.25 16.855 108.573 15.912 L 108.458 15.749 C 111.336 14.741 112.919 12.956 112.919 10.711 C 112.953 9.171 112.067 7.741 110.618 6.999 C 109.466 6.348 107.644 6.017 105.194 6.017 L 96.467 6.017 L 96.467 6.803 L 96.537 6.803 C 99.175 6.969 99.467 7.092 99.467 10.229 L 99.467 20.517 C 99.467 23.647 99.162 23.769 96.398 23.943 L 96.329 23.943 L 96.329 24.727 L 105.547 24.727 L 105.547 23.943 L 105.482 23.943 C 102.776 23.773 102.476 23.651 102.476 20.517 L 102.476 16.553 L 104.244 16.553 C 105.257 16.553 105.783 16.805 106.335 17.551 C 106.551 17.867 106.806 18.226 107.073 18.6 C 107.96 19.876 108.971 21.315 109.782 22.298 C 111.029 23.818 112.228 24.898 116.25 24.983 L 116.791 24.983 L 116.873 24.326 L 116.808 24.312 C 115.622 24.06 115.031 23.643 114.289 22.901 M 107.748 14.84 C 106.828 15.469 105.739 15.596 104.38 15.596 L 102.476 15.596 L 102.476 7.827 C 102.476 7.239 102.588 7.16 102.733 7.114 C 103.043 7.021 103.599 6.981 104.62 6.981 C 106.964 6.981 109.696 8.061 109.696 11.116 C 109.696 12.702 109.021 13.988 107.748 14.834 M 130.666 6.805 L 130.746 6.805 C 132.969 6.89 133.854 7.277 134.019 8.236 C 134.203 9.405 134.294 11.241 134.294 13.677 L 134.294 15.219 C 134.294 16.849 134.095 19.842 132.779 21.522 C 131.697 22.889 129.935 23.638 127.825 23.638 C 125.66 23.638 124.074 23.004 122.97 21.696 C 121.996 20.501 121.557 18.804 121.557 16.19 L 121.557 10.229 C 121.557 7.098 121.842 6.973 124.487 6.803 L 124.552 6.803 L 124.552 6.017 L 115.379 6.017 L 115.379 6.803 L 115.449 6.803 C 118.215 6.969 118.52 7.094 118.52 10.229 L 118.52 17.198 C 118.52 20.436 119.338 22.437 121.173 23.683 C 123.022 24.964 125.502 25.156 126.812 25.156 C 129.301 25.156 131.74 24.35 133.166 23.078 C 135.023 21.414 135.783 19.249 135.783 15.6 L 135.783 13.687 C 135.783 11.241 135.872 9.405 136.056 8.246 C 136.216 7.287 137.049 6.876 138.917 6.815 L 138.986 6.815 L 138.986 6.028 L 130.666 6.028 Z M 62.909 33.005 L 64.97 28.864 L 66.151 34.507 L 65.286 34.507 C 65.192 34.013 65.108 33.519 64.998 33.031 C 64.913 32.651 64.829 32.27 64.768 31.887 C 64.727 31.611 64.701 31.327 64.675 31.04 L 62.87 34.777 L 61.162 31.071 C 61.13 31.385 61.095 31.691 61.037 32 C 60.961 32.419 60.851 32.838 60.758 33.265 C 60.665 33.692 60.572 34.087 60.487 34.5 L 59.621 34.5 L 60.92 28.826 Z M 69.166 33.072 C 69.609 33.549 70.255 33.822 70.932 33.819 C 71.43 33.825 71.917 33.684 72.324 33.416 C 72.859 33.056 73.18 32.481 73.19 31.867 C 73.188 31.592 73.124 31.322 73.001 31.073 C 72.618 30.339 71.811 29.88 70.935 29.898 C 70.437 29.894 69.952 30.039 69.549 30.311 C 69.087 30.619 68.783 31.093 68.71 31.618 C 68.638 32.143 68.804 32.673 69.168 33.08 M 68.679 29.982 C 69.281 29.433 70.092 29.129 70.935 29.136 C 71.645 29.135 72.337 29.347 72.908 29.741 C 73.618 30.245 74.036 31.027 74.04 31.859 C 74.037 32.213 73.954 32.563 73.796 32.886 C 73.283 33.927 72.156 34.585 70.926 34.561 C 70.202 34.559 69.498 34.335 68.924 33.924 C 68.207 33.412 67.798 32.611 67.824 31.77 C 67.856 31.094 68.158 30.454 68.671 29.974 M 76.928 29.942 L 76.928 31.597 L 77.592 31.597 C 77.999 31.568 78.302 31.53 78.514 31.23 C 78.627 31.07 78.686 30.883 78.683 30.692 C 78.692 30.463 78.585 30.244 78.395 30.099 C 78.198 29.993 77.974 29.938 77.746 29.942 Z M 79.092 34.494 L 77.272 32.245 L 76.908 32.245 L 76.908 34.505 L 76.073 34.505 L 76.073 29.223 L 77.804 29.223 C 78.218 29.247 78.614 29.269 78.936 29.485 C 79.341 29.77 79.572 30.221 79.553 30.694 C 79.569 31.222 79.287 31.719 78.808 32.004 C 78.64 32.091 78.458 32.154 78.269 32.189 C 78.547 32.542 78.817 32.894 79.105 33.239 C 79.321 33.499 79.538 33.757 79.754 34.017 C 79.882 34.174 80.001 34.339 80.118 34.496 Z M 85.055 29.221 L 85.055 29.96 L 83.635 29.96 L 83.635 34.49 L 82.789 34.49 L 82.789 29.96 L 81.38 29.96 L 81.38 29.221 Z M 91.405 30.692 C 91.295 30.595 91.189 30.49 91.074 30.408 C 90.646 30.055 90.096 29.855 89.524 29.845 C 88.329 29.84 87.356 30.739 87.35 31.851 C 87.345 32.964 88.309 33.871 89.505 33.876 C 89.998 33.879 90.476 33.713 90.847 33.41 C 91.039 33.251 91.187 33.051 91.28 32.828 C 91.336 32.707 91.367 32.577 91.373 32.445 L 89.888 32.445 L 89.888 31.709 L 92.327 31.709 C 92.337 31.945 92.322 32.18 92.284 32.413 C 92.194 32.943 91.932 33.435 91.533 33.823 C 90.993 34.337 90.243 34.612 89.472 34.579 C 88.747 34.591 88.04 34.369 87.47 33.952 C 86.267 32.962 86.126 31.261 87.15 30.109 C 88.265 28.95 90.151 28.785 91.479 29.73 C 91.652 29.854 91.815 29.989 91.968 30.134 Z M 95.533 32.548 L 97.422 32.548 L 96.509 30.692 Z M 99.283 34.509 L 98.344 34.509 L 97.747 33.229 L 95.18 33.229 L 94.494 34.502 L 93.556 34.502 L 96.556 28.918 Z M 105.463 30.692 C 105.35 30.595 105.246 30.49 105.131 30.408 C 104.702 30.054 104.151 29.855 103.577 29.845 C 102.382 29.841 101.41 30.741 101.405 31.853 C 101.401 32.966 102.367 33.872 103.562 33.876 C 104.056 33.879 104.533 33.713 104.904 33.41 C 105.096 33.25 105.244 33.051 105.337 32.828 C 105.393 32.71 105.424 32.584 105.43 32.455 L 103.945 32.455 L 103.945 31.709 L 106.387 31.709 C 106.397 31.945 106.381 32.18 106.341 32.413 C 106.253 32.943 105.991 33.436 105.592 33.823 C 105.053 34.338 104.303 34.613 103.532 34.579 C 102.806 34.591 102.099 34.369 101.528 33.952 C 100.328 32.96 100.187 31.262 101.207 30.109 C 102.323 28.95 104.208 28.785 105.536 29.73 C 105.71 29.853 105.874 29.988 106.025 30.134 Z M 111.694 29.221 L 111.694 29.96 L 109.298 29.96 L 109.298 31.242 L 111.676 31.242 L 111.676 31.953 L 109.289 31.953 L 109.289 33.765 L 111.659 33.765 L 111.659 34.49 L 108.434 34.49 L 108.434 29.221 Z M 121.237 30.377 C 121.138 30.317 121.043 30.258 120.932 30.198 C 120.577 29.985 120.164 29.873 119.742 29.876 C 119.054 29.875 118.4 30.155 117.952 30.641 C 117.667 30.995 117.515 31.426 117.519 31.869 C 117.526 32.174 117.599 32.475 117.735 32.753 C 118.082 33.426 118.917 33.846 119.753 33.846 C 120.352 33.846 120.733 33.644 121.222 33.352 L 121.222 34.243 C 120.763 34.463 120.254 34.578 119.737 34.579 C 118.997 34.58 118.277 34.351 117.692 33.928 C 117.09 33.453 116.72 32.772 116.666 32.039 C 116.611 31.306 116.878 30.584 117.404 30.037 C 118.028 29.458 118.87 29.131 119.75 29.124 C 120.269 29.143 120.778 29.259 121.248 29.462 Z M 124.765 32.548 L 126.657 32.548 L 125.744 30.692 Z M 128.514 34.509 L 127.577 34.509 L 126.975 33.229 L 124.41 33.229 L 123.724 34.502 L 122.789 34.502 L 125.778 28.918 Z M 131.068 31.621 L 131.587 31.621 C 132.035 31.607 132.382 31.582 132.635 31.268 C 132.745 31.129 132.807 30.961 132.812 30.788 C 132.807 30.545 132.675 30.319 132.457 30.184 C 132.221 30.061 131.953 30.003 131.683 30.017 L 131.068 30.017 Z M 131.068 32.352 L 131.068 34.494 L 130.235 34.494 L 130.235 29.231 L 131.297 29.231 C 131.628 29.227 131.958 29.243 132.286 29.277 C 132.704 29.303 133.088 29.497 133.338 29.809 C 133.643 30.221 133.737 30.737 133.596 31.22 C 133.448 31.7 133.056 32.082 132.546 32.239 C 132.257 32.31 131.959 32.344 131.661 32.342 Z M 135.597 29.221 L 136.475 29.221 L 136.475 34.49 L 135.597 34.49 Z M 141.966 29.235 L 141.966 29.974 L 140.547 29.974 L 140.547 34.505 L 139.702 34.505 L 139.702 29.974 L 138.293 29.974 L 138.293 29.235 Z M 144.388 32.548 L 146.282 32.548 L 145.369 30.692 Z M 148.141 34.509 L 147.204 34.509 L 146.602 33.229 L 144.035 33.229 L 143.352 34.502 L 142.414 34.502 L 145.403 28.918 Z M 150.635 29.221 L 150.635 33.787 L 152.451 33.787 L 152.451 34.498 L 149.773 34.498 L 149.773 29.221 Z" fill="transparent" height="40.00000045493054px" id="VGmBEU_hg" transform="translate(23 20)" width="153.6842181776908px"><path d="M 28.643 0 L 28.061 1.217 L 32.809 1.217 L 23.089 21.035 L 14.233 1.217 L 18.815 1.217 L 18.267 0 L 0 0 L 0.589 1.217 L 2.221 1.217 L 15.157 29.092 L 17.016 29.092 L 4.078 1.217 L 5.907 1.217 L 18.841 29.092 L 21.115 29.092 L 34.61 1.217 L 36.441 1.217 L 22.944 29.092 L 27.399 29.092 L 40.763 1.217 L 45.932 1.217 L 46.516 0 Z" fill="var(--11h0dq0, var(--token-3c516c4d-e75f-4682-bff5-df0c0af0f129, rgb(0, 0, 0)))" height="29.091641116375712px" id="kqn8lq8q7" transform="translate(0 5.441)" width="46.51627295889057px"/><path d="M 5.391 17.591 L 5.391 33.32 L 0.589 33.32 L 0.019 34.539 L 10.943 34.539 L 10.38 33.32 L 6.826 33.32 L 6.826 20.69 Z M 37.839 17.047 L 33.645 25.694 L 33.645 33.263 L 30.013 33.263 L 29.435 34.486 L 46.495 34.486 L 45.934 33.263 L 41.142 33.263 L 41.142 10.233 Z M 46.518 38.811 L 0 38.811 L 0 40 L 46.518 40 Z M 46.518 0 L 0 0 L 0 1.189 L 46.518 1.189 Z M 68.372 6.803 L 69.454 6.892 C 70.255 6.967 70.649 7.094 70.822 7.352 C 71.012 7.636 70.954 8.115 70.621 8.946 C 69.971 10.558 67.636 15.745 65.933 19.535 L 65.236 21.089 L 65.084 20.759 C 62.658 15.568 60.163 10.195 59.301 8.143 C 59.121 7.722 59.085 7.47 59.199 7.307 C 59.323 7.106 59.665 6.997 60.331 6.922 L 61.414 6.807 L 61.478 6.807 L 61.478 6.025 L 53.063 6.025 L 53.063 6.811 L 53.131 6.811 C 55.169 6.983 55.617 7.198 56.682 9.514 L 57.358 10.967 C 58.992 14.504 61.732 20.424 63.742 24.862 L 63.76 24.904 L 64.881 24.904 L 64.896 24.862 C 67.443 19.086 71.655 10.632 72.125 9.687 C 73.361 7.225 73.64 7.011 75.921 6.811 L 75.988 6.811 L 75.988 6.025 L 68.372 6.025 Z M 93.814 20.061 C 93.288 21.422 92.732 22.355 92.193 22.84 C 91.411 23.554 89.611 23.647 87.948 23.647 C 86.379 23.647 85.135 23.647 84.505 23.314 C 83.918 23.004 83.691 22.226 83.691 20.543 L 83.691 15.553 L 87.059 15.553 C 88.494 15.553 89.247 15.606 89.678 15.91 C 90.108 16.214 90.191 16.734 90.366 17.81 L 90.379 17.867 L 91.355 17.867 L 91.355 12.073 L 90.37 12.073 L 90.357 12.132 C 90.022 14.193 89.996 14.362 87.05 14.362 L 83.691 14.362 L 83.691 7.914 C 83.691 7.126 83.724 7.094 84.644 7.094 L 87.241 7.094 C 89.301 7.094 90.412 7.295 90.937 7.763 C 91.463 8.23 91.82 9.006 92.145 10.36 L 92.158 10.417 L 93.145 10.314 L 93.145 10.249 C 92.978 8.686 92.803 6.606 92.771 6.082 L 92.771 6.021 L 77.679 6.021 L 77.679 6.803 L 77.746 6.803 C 80.388 6.971 80.678 7.092 80.678 10.229 L 80.678 20.517 C 80.678 23.54 80.462 23.765 77.408 23.943 L 77.339 23.943 L 77.339 24.727 L 93.595 24.727 L 93.608 24.682 C 93.885 23.904 94.641 20.974 94.805 20.188 L 94.82 20.114 L 93.831 20.019 Z M 148.061 13.834 L 147.808 13.738 C 144.984 12.682 143.455 11.723 143.455 9.768 C 143.455 8.224 144.57 6.666 147.063 6.666 C 149.979 6.666 150.983 8.416 151.635 10.306 L 151.652 10.356 L 152.637 10.257 L 152.637 10.191 C 152.535 9.564 152.442 9.014 152.366 8.516 C 152.221 7.65 152.109 6.965 152.022 6.334 L 152.022 6.281 L 151.968 6.281 C 151.687 6.237 151.342 6.144 151.009 6.058 C 150.899 6.028 150.793 5.993 150.684 5.967 C 149.753 5.729 148.793 5.604 147.827 5.594 C 143.65 5.594 140.731 7.783 140.731 10.918 C 140.731 14.054 144.488 15.461 146.092 16.055 C 146.256 16.114 146.401 16.17 146.503 16.21 C 148.884 17.178 150.862 18.167 150.862 20.465 C 150.862 22.663 149.232 24.092 146.704 24.092 C 142.979 24.092 141.293 20.666 140.878 19.618 L 140.85 19.566 L 139.867 19.701 L 139.882 19.769 C 139.98 20.215 140.079 20.7 140.183 21.18 C 140.438 22.403 140.676 23.558 140.878 24.092 L 140.878 24.12 L 141.094 24.201 C 141.499 24.346 142.051 24.539 142.78 24.733 C 143.841 25.015 144.938 25.162 146.042 25.168 C 150.397 25.168 153.684 22.667 153.684 19.356 C 153.684 15.894 150.303 14.659 148.057 13.845 M 114.297 22.901 C 113.261 21.923 112.305 20.874 111.438 19.763 C 110.501 18.608 109.25 16.855 108.573 15.912 L 108.458 15.749 C 111.336 14.741 112.919 12.956 112.919 10.711 C 112.953 9.171 112.067 7.741 110.618 6.999 C 109.466 6.348 107.644 6.017 105.194 6.017 L 96.467 6.017 L 96.467 6.803 L 96.537 6.803 C 99.175 6.969 99.467 7.092 99.467 10.229 L 99.467 20.517 C 99.467 23.647 99.162 23.769 96.398 23.943 L 96.329 23.943 L 96.329 24.727 L 105.547 24.727 L 105.547 23.943 L 105.482 23.943 C 102.776 23.773 102.476 23.651 102.476 20.517 L 102.476 16.553 L 104.244 16.553 C 105.257 16.553 105.783 16.805 106.335 17.551 C 106.551 17.867 106.806 18.226 107.073 18.6 C 107.96 19.876 108.971 21.315 109.782 22.298 C 111.029 23.818 112.228 24.898 116.25 24.983 L 116.791 24.983 L 116.873 24.326 L 116.808 24.312 C 115.622 24.06 115.031 23.643 114.289 22.901 M 107.748 14.84 C 106.828 15.469 105.739 15.596 104.38 15.596 L 102.476 15.596 L 102.476 7.827 C 102.476 7.239 102.588 7.16 102.733 7.114 C 103.043 7.021 103.599 6.981 104.62 6.981 C 106.964 6.981 109.696 8.061 109.696 11.116 C 109.696 12.702 109.021 13.988 107.748 14.834 M 130.666 6.805 L 130.746 6.805 C 132.969 6.89 133.854 7.277 134.019 8.236 C 134.203 9.405 134.294 11.241 134.294 13.677 L 134.294 15.219 C 134.294 16.849 134.095 19.842 132.779 21.522 C 131.697 22.889 129.935 23.638 127.825 23.638 C 125.66 23.638 124.074 23.004 122.97 21.696 C 121.996 20.501 121.557 18.804 121.557 16.19 L 121.557 10.229 C 121.557 7.098 121.842 6.973 124.487 6.803 L 124.552 6.803 L 124.552 6.017 L 115.379 6.017 L 115.379 6.803 L 115.449 6.803 C 118.215 6.969 118.52 7.094 118.52 10.229 L 118.52 17.198 C 118.52 20.436 119.338 22.437 121.173 23.683 C 123.022 24.964 125.502 25.156 126.812 25.156 C 129.301 25.156 131.74 24.35 133.166 23.078 C 135.023 21.414 135.783 19.249 135.783 15.6 L 135.783 13.687 C 135.783 11.241 135.872 9.405 136.056 8.246 C 136.216 7.287 137.049 6.876 138.917 6.815 L 138.986 6.815 L 138.986 6.028 L 130.666 6.028 Z M 62.909 33.005 L 64.97 28.864 L 66.151 34.507 L 65.286 34.507 C 65.192 34.013 65.108 33.519 64.998 33.031 C 64.913 32.651 64.829 32.27 64.768 31.887 C 64.727 31.611 64.701 31.327 64.675 31.04 L 62.87 34.777 L 61.162 31.071 C 61.13 31.385 61.095 31.691 61.037 32 C 60.961 32.419 60.851 32.838 60.758 33.265 C 60.665 33.692 60.572 34.087 60.487 34.5 L 59.621 34.5 L 60.92 28.826 Z M 69.166 33.072 C 69.609 33.549 70.255 33.822 70.932 33.819 C 71.43 33.825 71.917 33.684 72.324 33.416 C 72.859 33.056 73.18 32.481 73.19 31.867 C 73.188 31.592 73.124 31.322 73.001 31.073 C 72.618 30.339 71.811 29.88 70.935 29.898 C 70.437 29.894 69.952 30.039 69.549 30.311 C 69.087 30.619 68.783 31.093 68.71 31.618 C 68.638 32.143 68.804 32.673 69.168 33.08 M 68.679 29.982 C 69.281 29.433 70.092 29.129 70.935 29.136 C 71.645 29.135 72.337 29.347 72.908 29.741 C 73.618 30.245 74.036 31.027 74.04 31.859 C 74.037 32.213 73.954 32.563 73.796 32.886 C 73.283 33.927 72.156 34.585 70.926 34.561 C 70.202 34.559 69.498 34.335 68.924 33.924 C 68.207 33.412 67.798 32.611 67.824 31.77 C 67.856 31.094 68.158 30.454 68.671 29.974 M 76.928 29.942 L 76.928 31.597 L 77.592 31.597 C 77.999 31.568 78.302 31.53 78.514 31.23 C 78.627 31.07 78.686 30.883 78.683 30.692 C 78.692 30.463 78.585 30.244 78.395 30.099 C 78.198 29.993 77.974 29.938 77.746 29.942 Z M 79.092 34.494 L 77.272 32.245 L 76.908 32.245 L 76.908 34.505 L 76.073 34.505 L 76.073 29.223 L 77.804 29.223 C 78.218 29.247 78.614 29.269 78.936 29.485 C 79.341 29.77 79.572 30.221 79.553 30.694 C 79.569 31.222 79.287 31.719 78.808 32.004 C 78.64 32.091 78.458 32.154 78.269 32.189 C 78.547 32.542 78.817 32.894 79.105 33.239 C 79.321 33.499 79.538 33.757 79.754 34.017 C 79.882 34.174 80.001 34.339 80.118 34.496 Z" fill="var(--11h0dq0, var(--token-3c516c4d-e75f-4682-bff5-df0c0af0f129, rgb(0, 0, 0)))" height="40.00000045493054px" id="CxvY7_02b" width="153.6842181776908px"/><path d="M 3.675 0 L 3.675 0.74 L 2.255 0.74 L 2.255 5.27 L 1.409 5.27 L 1.409 0.74 L 0 0.74 L 0 0 Z" fill="var(--11h0dq0, var(--token-3c516c4d-e75f-4682-bff5-df0c0af0f129, rgb(0, 0, 0)))" height="5.269786749745116px" id="hzCKvvIoY" transform="translate(81.38 29.221)" width="3.6750712583376526px"/><path d="M 4.939 1.773 C 4.829 1.677 4.723 1.572 4.608 1.489 C 4.18 1.136 3.63 0.937 3.058 0.927 C 1.863 0.922 0.89 1.82 0.884 2.933 C 0.879 4.046 1.844 4.952 3.039 4.957 C 3.532 4.961 4.01 4.795 4.381 4.492 C 4.573 4.333 4.721 4.133 4.814 3.91 C 4.87 3.788 4.901 3.659 4.907 3.527 L 3.422 3.527 L 3.422 2.791 L 5.861 2.791 C 5.871 3.026 5.856 3.262 5.818 3.494 C 5.728 4.025 5.466 4.517 5.067 4.905 C 4.527 5.419 3.778 5.694 3.006 5.661 C 2.282 5.672 1.574 5.451 1.004 5.034 C -0.199 4.043 -0.34 2.343 0.684 1.191 C 1.799 0.032 3.685 -0.133 5.013 0.812 C 5.186 0.936 5.349 1.07 5.502 1.215 Z M 9.067 3.629 L 10.956 3.629 L 10.043 1.773 Z M 12.817 5.59 L 11.878 5.59 L 11.281 4.311 L 8.714 4.311 L 8.028 5.584 L 7.091 5.584 L 10.09 0 Z M 18.997 1.773 C 18.884 1.677 18.78 1.572 18.666 1.489 C 18.236 1.136 17.685 0.937 17.112 0.927 C 15.916 0.923 14.944 1.822 14.94 2.935 C 14.935 4.048 15.901 4.954 17.096 4.957 C 17.59 4.96 18.067 4.795 18.438 4.492 C 18.63 4.332 18.778 4.133 18.871 3.91 C 18.927 3.792 18.958 3.665 18.964 3.537 L 17.479 3.537 L 17.479 2.791 L 19.921 2.791 C 19.931 3.026 19.915 3.262 19.875 3.494 C 19.787 4.025 19.526 4.517 19.127 4.905 C 18.587 5.42 17.837 5.695 17.066 5.661 C 16.341 5.672 15.633 5.451 15.062 5.034 C 13.862 4.042 13.721 2.344 14.742 1.191 C 15.857 0.032 17.742 -0.133 19.07 0.812 C 19.244 0.934 19.408 1.069 19.559 1.215 Z" fill="var(--11h0dq0, var(--token-3c516c4d-e75f-4682-bff5-df0c0af0f129, rgb(0, 0, 0)))" height="5.663576177014347px" id="ztHM6hrkP" transform="translate(86.466 28.918)" width="19.923730532815558px"/><path d="M 3.26 0 L 3.26 0.74 L 0.864 0.74 L 0.864 2.021 L 3.242 2.021 L 3.242 2.733 L 0.855 2.733 L 0.855 4.544 L 3.225 4.544 L 3.225 5.27 L 0 5.27 L 0 0 Z" fill="var(--11h0dq0, var(--token-3c516c4d-e75f-4682-bff5-df0c0af0f129, rgb(0, 0, 0)))" height="5.269786749745116px" id="FS0zTuPc0" transform="translate(108.434 29.221)" width="3.2595154976776257px"/><path d="M 4.579 1.459 C 4.479 1.399 4.384 1.34 4.274 1.28 C 3.919 1.067 3.505 0.955 3.083 0.957 C 2.395 0.957 1.741 1.236 1.293 1.723 C 1.008 2.077 0.856 2.508 0.86 2.95 C 0.867 3.256 0.941 3.557 1.077 3.835 C 1.423 4.508 2.259 4.927 3.094 4.927 C 3.693 4.927 4.074 4.726 4.564 4.433 L 4.564 5.324 C 4.104 5.545 3.595 5.66 3.079 5.661 C 2.338 5.662 1.618 5.433 1.034 5.01 C 0.431 4.535 0.061 3.854 0.007 3.121 C -0.047 2.388 0.219 1.666 0.746 1.118 C 1.369 0.54 2.212 0.212 3.092 0.206 C 3.61 0.225 4.119 0.34 4.59 0.544 Z M 8.107 3.629 L 9.998 3.629 L 9.085 1.773 Z M 11.855 5.59 L 10.918 5.59 L 10.316 4.311 L 7.752 4.311 L 7.066 5.584 L 6.131 5.584 L 9.12 0 Z M 14.409 2.702 L 14.929 2.702 C 15.377 2.688 15.723 2.664 15.976 2.35 C 16.087 2.211 16.149 2.043 16.154 1.87 C 16.148 1.627 16.016 1.401 15.799 1.266 C 15.563 1.143 15.294 1.085 15.024 1.098 L 14.409 1.098 Z M 14.409 3.434 L 14.409 5.576 L 13.576 5.576 L 13.576 0.312 L 14.639 0.312 C 14.969 0.309 15.299 0.325 15.628 0.359 C 16.045 0.385 16.429 0.579 16.68 0.891 C 16.985 1.303 17.079 1.819 16.937 2.301 C 16.79 2.782 16.397 3.164 15.887 3.321 C 15.598 3.391 15.301 3.426 15.002 3.424 Z" fill="var(--11h0dq0, var(--token-3c516c4d-e75f-4682-bff5-df0c0af0f129, rgb(0, 0, 0)))" height="5.6607442833625425px" id="pCiHUwblW" transform="translate(116.659 28.918)" width="17.001687858658485px"/><path d="M 0 0 L 0.879 0 L 0.879 5.27 L 0 5.27 Z M 6.37 0.014 L 6.37 0.754 L 4.95 0.754 L 4.95 5.284 L 4.106 5.284 L 4.106 0.754 L 2.697 0.754 L 2.697 0.014 Z" fill="var(--11h0dq0, var(--token-3c516c4d-e75f-4682-bff5-df0c0af0f129, rgb(0, 0, 0)))" height="5.283893245051331px" id="HslYk6zWt" transform="translate(135.597 29.221)" width="6.369690686469312px"/><path d="M 1.974 3.629 L 3.868 3.629 L 2.954 1.773 Z M 5.727 5.59 L 4.79 5.59 L 4.188 4.311 L 1.621 4.311 L 0.937 5.584 L 0 5.584 L 2.989 0 Z" fill="var(--11h0dq0, var(--token-3c516c4d-e75f-4682-bff5-df0c0af0f129, rgb(0, 0, 0)))" height="5.590205851168292px" id="TcBRvlRFg" transform="translate(142.414 28.918)" width="5.726877826597047px"/><path d="M 0.861 0 L 0.861 4.566 L 2.677 4.566 L 2.677 5.278 L 0 5.278 L 0 0 Z" fill="var(--11h0dq0, var(--token-3c516c4d-e75f-4682-bff5-df0c0af0f129, rgb(0, 0, 0)))" height="5.2778476090182025px" id="bPY2OIYGP" transform="translate(149.773 29.221)" width="2.6773045621695246px"/></g></svg>