<svg xmlns="http://www.w3.org/2000/svg" width="128" height="128" fill="none"><path fill="#00BE50" d="M0 40C0 17.909 17.909 0 40 0h48c22.091 0 40 17.909 40 40v48c0 22.091-17.909 40-40 40H6a6 6 0 0 1-6-6V40z"/><path fill="#1281DE" d="M77.378 60.751a9.314 9.314 0 1 1-18.628 0 9.314 9.314 0 0 1 18.628 0z"/><path fill="#F4FEFC" d="M63.138 24.275c.25-.868 1.479-.868 1.728 0l1.129 3.928A55.647 55.647 0 0 0 95.537 63.07a.773.773 0 0 1 0 1.396 55.646 55.646 0 0 0-29.543 34.867l-1.13 3.928c-.248.868-1.478.868-1.727 0l-1.129-3.928a55.646 55.646 0 0 0-29.543-34.867.773.773 0 0 1 0-1.396 55.647 55.647 0 0 0 29.543-34.867l1.129-3.928z"/></svg>