<svg xmlns="http://www.w3.org/2000/svg" width="20" height="20" fill="none"><path fill="#00D65A" d="M0 6a6 6 0 0 1 6-6h8a6 6 0 0 1 6 6v8a6 6 0 0 1-6 6H1a1 1 0 0 1-1-1V6z"/><path fill="url(#a)" fill-opacity=".1" d="M0 6a6 6 0 0 1 6-6h8a6 6 0 0 1 6 6v8a6 6 0 0 1-6 6H1a1 1 0 0 1-1-1V6z"/><path fill="#E3FCF7" d="M9.817 1.636a.19.19 0 0 1 .366 0l.238.827a11.796 11.796 0 0 0 6.268 7.39.164.164 0 0 1 0 .295 11.796 11.796 0 0 0-6.268 7.39l-.238.826a.19.19 0 0 1-.366 0l-.238-.827a11.796 11.796 0 0 0-6.268-7.39.164.164 0 0 1 0-.295 11.796 11.796 0 0 0 6.268-7.39l.238-.826z"/><path fill="#fff" fill-opacity=".2" d="M9.817 1.636a.19.19 0 0 1 .366 0l.238.827a11.796 11.796 0 0 0 6.268 7.39.164.164 0 0 1 0 .295 11.796 11.796 0 0 0-6.268 7.39l-.238.826a.19.19 0 0 1-.366 0l-.238-.827a11.796 11.796 0 0 0-6.268-7.39.164.164 0 0 1 0-.295 11.796 11.796 0 0 0 6.268-7.39l.238-.826z"/><defs><linearGradient id="a" x1="2.143" x2="18.721" y1="0" y2="17.489" gradientUnits="userSpaceOnUse"><stop stop-opacity="0"/><stop offset="1"/></linearGradient></defs></svg>